<svg width="177" height="30" viewBox="0 0 177 30" fill="none" xmlns="http://www.w3.org/2000/svg">
<g clip-path="url(#clip0_956_458)">
<path d="M155.224 17.2727H152.503V20H155.224V17.2727Z" fill="#96969B"/>
<path d="M176.993 10H174.272V20H176.993V10Z" fill="#96969B"/>
<path d="M38.2147 0V8.18182H35.4935V0H32.7724V8.18182H30.0512V0H27.3301V8.18182H13.7243V0H11.0031V8.18182V10.9091H38.2147V13.6364H35.4935H32.7724H8.28199V0H5.56084V13.6364H2.83968V0H0.11853V13.6364V16.3636V30H2.83968V21.8182H5.56084V30H8.28199V21.8182H11.0031V30H13.7243V21.8182H27.3301V30H30.0512V21.8182V19.0909H8.28199H5.56084H2.83968V16.3636H5.56084H8.28199H32.7724V30H35.4935V16.3636H38.2147V30H40.9358V16.3636V13.6364V10.9091V8.18182V0H38.2147Z" fill="#96969B"/>
<path d="M65.4262 10V13.6364H57.2628V10H54.5416V20H57.2628V16.3636H65.4262V20H68.1474V10H65.4262Z" fill="#96969B"/>
<path d="M117.128 16.3636H114.407V20H117.128V16.3636Z" fill="#96969B"/>
<path d="M117.128 10H114.407V13.6364H106.243V10H103.522V20H106.243V16.3636H114.407L117.128 13.6364V10Z" fill="#96969B"/>
<path d="M82.6602 10H70.8685V20H73.5897V16.3636H81.7531V20H84.4743V10H82.6602ZM73.5897 13.6364V12.7273H81.7531V13.6364H73.5897Z" fill="#96969B"/>
<path d="M100.801 12.7273V10H89.9166H89.0095H87.1954V20H89.0095H89.9166H100.801V17.2727H89.9166V12.7273H100.801Z" fill="#96969B"/>
<path d="M133.455 12.7273V10H122.57H121.663H119.849V20H121.663H122.57H133.455V17.2727H122.57V16.3636H133.455V13.6364H122.57V12.7273H133.455Z" fill="#96969B"/>
<path d="M147.061 10V16.3636L138.897 10H136.176V20H138.897V13.6364L147.061 20H149.782V10H147.061Z" fill="#96969B"/>
<path d="M169.737 10H160.667L157.945 12.7273V20H160.667V16.3636H168.83V20H171.551V10H169.737ZM168.83 13.6364H160.667V12.7273H168.83V13.6364Z" fill="#96969B"/>
</g>
<defs>
<clipPath id="clip0_956_458">
<rect width="176.875" height="30" fill="white" transform="translate(0.11853)"/>
</clipPath>
</defs>
</svg>
