<svg width="135" height="33" viewBox="0 0 135 33" fill="none" xmlns="http://www.w3.org/2000/svg">
<g clip-path="url(#clip0_8_99)">
<path fill-rule="evenodd" clip-rule="evenodd" d="M27.589 5.4052L27.757 6.4232C27.89 7.3702 27.951 8.3262 27.941 9.2832C27.9397 11.3964 27.6845 13.5018 27.181 15.5542C26.5003 18.3426 25.3147 20.9828 23.683 23.3442C21.797 26.0572 19.071 28.7242 15.096 30.8682L14.61 31.1302L14.124 30.8682C10.149 28.7252 7.424 26.0572 5.537 23.3452C3.90528 20.9838 2.71973 18.3436 2.039 15.5552C1.53546 13.5025 1.2803 11.3968 1.279 9.2832C1.269 8.3272 1.33 7.3712 1.463 6.4242L1.631 5.4062C1.648 5.3221 1.64788 5.23544 1.63067 5.15139C1.61345 5.06734 1.57948 4.98761 1.53079 4.91697C1.48209 4.84633 1.41967 4.78622 1.34725 4.74022C1.27482 4.69422 1.19387 4.66328 1.10923 4.64924C1.02459 4.6352 0.937986 4.63835 0.854587 4.6585C0.771189 4.67865 0.692702 4.71539 0.623809 4.76653C0.554916 4.81766 0.497026 4.88215 0.453592 4.95615C0.410159 5.03014 0.382071 5.11212 0.371004 5.1972L0.203004 6.2152C0.0577715 7.23125 -0.0100903 8.25687 3.88524e-06 9.2832C3.88524e-06 11.5012 0.268004 13.7102 0.796004 15.8632C1.51505 18.8041 2.7667 21.5883 4.489 24.0782C6.479 26.9422 9.367 29.7592 13.522 31.9952L14.312 32.4202C14.4049 32.4704 14.5089 32.4966 14.6145 32.4966C14.7201 32.4966 14.8241 32.4704 14.917 32.4202L15.705 31.9952C19.856 29.7582 22.745 26.9422 24.738 24.0772C26.459 21.5877 27.7097 18.8042 28.428 15.8642C28.957 13.7112 29.224 11.5022 29.225 9.2842C29.2353 8.25823 29.1678 7.23296 29.023 6.2172L28.854 5.1982C28.8263 5.03111 28.7333 4.88188 28.5956 4.78333C28.4578 4.68478 28.2866 4.64499 28.1195 4.6727C27.9524 4.70042 27.8032 4.79337 27.7046 4.93112C27.6061 5.06886 27.5663 5.24011 27.594 5.4072L27.588 5.4052H27.589Z" fill="white"/>
<path fill-rule="evenodd" clip-rule="evenodd" d="M5.12096 4.71088L14.611 1.81088L24.314 4.77287C24.3945 4.7973 24.479 4.80563 24.5627 4.79739C24.6464 4.78915 24.7277 4.7645 24.8019 4.72485C24.8761 4.6852 24.9417 4.63133 24.9951 4.5663C25.0485 4.50128 25.0885 4.42638 25.113 4.34588C25.1374 4.26537 25.1457 4.18085 25.1375 4.09713C25.1292 4.01341 25.1046 3.93213 25.0649 3.85794C25.0253 3.78375 24.9714 3.71809 24.9064 3.66472C24.8414 3.61134 24.7665 3.5713 24.686 3.54688L14.797 0.526875C14.6757 0.48974 14.5462 0.48974 14.425 0.526875L4.74696 3.48288C4.66639 3.50737 4.59144 3.54749 4.52638 3.60095C4.46132 3.6544 4.40742 3.72015 4.36777 3.79444C4.28769 3.94447 4.2705 4.12016 4.31996 4.28288C4.36942 4.44559 4.48149 4.58198 4.63152 4.66206C4.78155 4.74214 4.95725 4.75934 5.11996 4.70988L5.12096 4.71088Z" fill="white"/>
<path fill-rule="evenodd" clip-rule="evenodd" d="M0.434899 5.59218L14.0399 32.1472C14.0932 32.2507 14.1738 32.3377 14.2729 32.3988C14.372 32.4598 14.486 32.4926 14.6024 32.4937C14.7188 32.4947 14.8333 32.4639 14.9335 32.4046C15.0337 32.3453 15.1158 32.2597 15.1709 32.1572L23.4679 16.6392L23.4799 16.6152L28.7909 5.57518C28.8546 5.42415 28.8579 5.25445 28.8002 5.10104C28.7424 4.94764 28.6281 4.82223 28.4806 4.75068C28.3331 4.67913 28.1638 4.66688 28.0076 4.71646C27.8514 4.76605 27.7201 4.87368 27.6409 5.01718L22.3389 16.0482L14.6279 30.4782L1.5709 5.00918C1.53531 4.93023 1.48404 4.85935 1.42021 4.80082C1.35638 4.7423 1.28132 4.69736 1.19959 4.66873C1.11786 4.64011 1.03116 4.62839 0.944766 4.6343C0.858369 4.64021 0.774075 4.66362 0.697003 4.7031C0.61993 4.74259 0.551688 4.79733 0.49642 4.864C0.441153 4.93067 0.400013 5.00788 0.3755 5.09093C0.350987 5.17399 0.343612 5.26116 0.353823 5.34716C0.364034 5.43315 0.391618 5.51717 0.434899 5.59218Z" fill="white"/>
<path fill-rule="evenodd" clip-rule="evenodd" d="M6.94798 17.4192H22.078C22.164 17.4226 22.2497 17.4086 22.3302 17.378C22.4106 17.3475 22.484 17.301 22.5461 17.2414C22.6081 17.1817 22.6575 17.1102 22.6912 17.031C22.7249 16.9519 22.7423 16.8667 22.7423 16.7807C22.7423 16.6946 22.7249 16.6095 22.6912 16.5303C22.6575 16.4511 22.6081 16.3796 22.5461 16.32C22.484 16.2604 22.4106 16.2139 22.3302 16.1833C22.2497 16.1528 22.164 16.1388 22.078 16.1422H6.94698C6.78201 16.1487 6.62597 16.2188 6.51156 16.3379C6.39715 16.4569 6.33325 16.6156 6.33325 16.7807C6.33325 16.9458 6.39715 17.1045 6.51156 17.2235C6.62597 17.3425 6.78301 17.4126 6.94798 17.4192ZM49.148 11.9092H39.306C39.1358 11.91 38.9728 11.978 38.8525 12.0984C38.7323 12.2189 38.6645 12.382 38.664 12.5522V20.4522C38.665 20.6221 38.733 20.7848 38.8532 20.905C38.9733 21.0251 39.136 21.0931 39.306 21.0942H49.149V22.4322H39.306C39.0463 22.4332 38.789 22.3829 38.5489 22.284C38.3088 22.1851 38.0907 22.0397 37.9071 21.8561C37.7235 21.6725 37.578 21.4543 37.4792 21.2142C37.3803 20.9741 37.3299 20.7168 37.331 20.4572V12.5572C37.3295 12.2974 37.3796 12.0399 37.4783 11.7996C37.5771 11.5594 37.7225 11.3411 37.9062 11.1574C38.0899 10.9737 38.3082 10.8283 38.5485 10.7295C38.7887 10.6308 39.0462 10.5807 39.306 10.5822H49.149L49.148 11.9092ZM67.631 10.5762V11.9142H58.151V15.8242H65.771V17.1742H58.151V21.0922H67.63V22.4302H56.812V10.5762H67.631Z" fill="white"/>
<path d="M87.15 12.5668V16.0398C87.1511 16.2995 87.1007 16.5568 87.0019 16.7969C86.903 17.037 86.7575 17.2551 86.5739 17.4387C86.3903 17.6223 86.1722 17.7677 85.9321 17.8666C85.692 17.9655 85.4347 18.0159 85.175 18.0148H83.365L87.085 22.4248H85.323L81.62 18.0148H77.27C77.055 18.0038 76.8408 17.9818 76.628 17.9488V22.4258H75.29V10.5918H85.165C85.4247 10.5909 85.6819 10.6413 85.9219 10.7403C86.162 10.8392 86.3801 10.9846 86.5636 11.1682C86.7472 11.3518 86.8927 11.5699 86.9916 11.8099C87.0905 12.05 87.141 12.3072 87.14 12.5668H87.15ZM77.275 16.6658H85.175C85.2576 16.6672 85.3396 16.6519 85.4162 16.6209C85.4928 16.5899 85.5623 16.5439 85.6207 16.4855C85.6791 16.4271 85.7252 16.3575 85.7561 16.281C85.7871 16.2044 85.8024 16.1224 85.801 16.0398V12.5668C85.8024 12.4832 85.7872 12.4001 85.7563 12.3223C85.7254 12.2446 85.6794 12.1737 85.621 12.1138C85.564 12.0527 85.4947 12.0042 85.4177 11.9717C85.3407 11.9391 85.2576 11.9231 85.174 11.9248H77.274C77.104 11.9256 76.9412 11.9935 76.8209 12.1137C76.7007 12.2339 76.6328 12.3968 76.632 12.5668V16.0398C76.6304 16.1234 76.6465 16.2063 76.6792 16.2832C76.712 16.3601 76.7606 16.4291 76.822 16.4858C76.8818 16.5444 76.9526 16.5905 77.0304 16.6214C77.1082 16.6523 77.1914 16.6674 77.275 16.6658Z" fill="white"/>
<path fill-rule="evenodd" clip-rule="evenodd" d="M94.228 10.5762H106.074V11.9142H100.832V22.4302H99.494V11.9142H94.228V10.5762ZM113.253 22.4262V10.5762H114.591V22.4262H113.253ZM132.378 10.5762H134.089L129.136 16.5002L134.106 22.4252H132.378L127.967 17.1752H124.149V22.4252H122.801V10.5752H124.151V15.8242H127.969L132.378 10.5742V10.5762Z" fill="white"/>
</g>
<defs>
<clipPath id="clip0_8_99">
<rect width="135" height="32" fill="white" transform="translate(0 0.5)"/>
</clipPath>
</defs>
</svg>
